<svg width="24" height="31" viewBox="0 0 24 31" fill="none" xmlns="http://www.w3.org/2000/svg">
<path d="M21.9583 7.2199C21.8293 6.95379 18.7228 0.709502 11.6485 0.689713C11.6111 0.687138 11.5737 0.685748 11.5362 0.685547C10.0645 0.714883 8.72753 1.29548 7.79848 2.2497C6.87053 2.26741 3.17881 2.65191 1.14765 7.56292C0.336292 9.52552 0.0509695 11.8155 0.322289 14.1861C0.501607 15.7485 0.83322 16.9013 1.30723 17.6123C1.3547 17.6835 1.419 17.7418 1.49443 17.7822C1.56987 17.8225 1.6541 17.8436 1.73964 17.8436C1.74566 17.8436 1.75174 17.8425 1.75781 17.8423C1.87227 20.4152 2.36399 23.2484 4.61752 25.3883C5.02534 25.7752 5.46365 26.1217 5.91186 26.4466V29.7958C5.91185 29.8641 5.92528 29.9317 5.95139 29.9947C5.9775 30.0578 6.01579 30.1151 6.06405 30.1633C6.11231 30.2116 6.16961 30.2499 6.23268 30.276C6.29574 30.3021 6.36333 30.3155 6.43159 30.3155C6.49984 30.3155 6.56743 30.3021 6.63049 30.276C6.69356 30.2499 6.75086 30.2116 6.79912 30.1633C6.84739 30.1151 6.88567 30.0578 6.91178 29.9947C6.93789 29.9317 6.95133 29.8641 6.95131 29.7958V27.1644L7.11281 27.2724L7.61124 27.6071C7.80821 27.7402 8.00002 27.8826 8.19126 28.024C9.02391 28.6394 9.88462 29.2761 11.0951 29.2761C12.3056 29.2761 13.1663 28.6394 13.999 28.024C14.1903 27.8826 14.382 27.7402 14.579 27.6071L15.0774 27.2724L15.2673 27.1453V29.7958C15.2673 29.8641 15.2807 29.9317 15.3068 29.9947C15.3329 30.0578 15.3712 30.1151 15.4195 30.1633C15.4677 30.2116 15.525 30.2499 15.5881 30.276C15.6512 30.3021 15.7187 30.3155 15.787 30.3155C15.8553 30.3155 15.9228 30.3021 15.9859 30.276C16.049 30.2499 16.1063 30.2116 16.1545 30.1633C16.2028 30.1151 16.2411 30.0578 16.2672 29.9947C16.2933 29.9317 16.3067 29.8641 16.3067 29.7958V26.426C16.745 26.107 17.1735 25.767 17.5727 25.3883C19.3222 23.7272 20.2094 21.7339 20.4485 18.9252C20.457 18.8263 20.4368 18.727 20.3904 18.6392C22.4155 16.0863 24.4232 11.9677 21.9583 7.2199ZM11.5066 1.71782C11.5425 1.72564 11.5783 1.72928 11.6147 1.72928C18.0503 1.72928 20.9936 7.61442 21.0289 7.68617C22.5762 10.6669 22.3902 13.7205 20.4744 16.7621C20.0819 17.3848 19.6537 17.944 19.2363 18.43C19.3341 18.0523 19.3984 17.6667 19.4286 17.2777C19.5637 15.535 18.8283 13.8094 17.4608 12.6618C13.9998 9.75847 11.1432 9.51626 10.3044 9.51626C10.1541 9.51626 10.0684 9.52407 10.0554 9.52563C9.42021 9.52563 8.74038 9.27977 8.03509 8.79488C7.43366 8.38127 7.06397 7.71712 6.98209 7.00043C6.98158 6.97499 6.9792 6.94961 6.97498 6.92451C6.93916 6.50677 7.00158 6.08643 7.15725 5.69712L7.77731 4.14825C8.36103 2.68819 9.80905 1.75995 11.5066 1.71782ZM1.35503 14.0676C1.10344 11.8717 1.36388 9.75992 2.10817 7.96055C3.49961 4.59651 5.7175 3.64842 6.98302 3.38596C6.92024 3.50865 6.86305 3.63413 6.81163 3.76201L6.19209 5.31089C6.01898 5.74387 5.929 6.20559 5.92685 6.67188C4.91806 7.21123 4.1475 8.57789 3.63362 10.7454C3.45013 11.5177 3.34725 12.3473 3.29888 13.4356C3.21 15.4465 2.42619 16.2979 1.9527 16.631C1.6856 16.0355 1.48082 15.1628 1.35503 14.0676ZM16.8572 24.6348C16.1524 25.3032 15.3119 25.8651 14.5001 26.4082L13.9954 26.7466C13.7875 26.888 13.5838 27.0382 13.3806 27.1884C12.6519 27.7279 11.9632 28.2367 11.0952 28.2367C10.2272 28.2367 9.5386 27.7279 8.80987 27.1884C8.60666 27.0382 8.40292 26.888 8.19502 26.7466L7.69034 26.4082C6.87846 25.8651 6.03806 25.3032 5.33329 24.6348C3.21116 22.6197 2.85148 19.9222 2.77921 17.3073C2.77915 17.3047 2.77869 17.3021 2.77858 17.2994C3.44082 16.7388 4.2428 15.6235 4.33741 13.4814C4.3826 12.4611 4.47772 11.6913 4.6446 10.9855C5.00619 9.46054 5.521 8.35448 6.10263 7.81942C6.33594 8.55116 6.79543 9.20357 7.44633 9.65131C8.32417 10.2553 9.19894 10.5624 10.0961 10.5624H10.107C10.1351 10.5614 13.0452 10.314 16.7925 13.4579C17.9038 14.3904 18.5015 15.788 18.3923 17.1971C18.2972 18.4185 17.8066 19.5734 16.9318 20.6285C16.8511 20.7259 16.8088 20.8495 16.8127 20.976C16.8166 21.1025 16.8665 21.2233 16.9531 21.3156C17.0016 21.3675 17.0603 21.4089 17.1255 21.4371C17.1907 21.4654 17.261 21.4799 17.332 21.4798C17.4416 21.4802 17.5485 21.4456 17.6371 21.3811C17.6616 21.3634 18.3762 20.8354 19.2808 19.9024C18.9499 21.8892 18.1818 23.3772 16.8572 24.6348Z" fill="#F56600" stroke="#F56600" stroke-width="0.237065"/>
</svg>
