<svg width="33" height="33" viewBox="0 0 33 33" fill="none" xmlns="http://www.w3.org/2000/svg">
<g clip-path="url(#clip0_554_259)">
<g clip-path="url(#clip1_554_259)">
<path d="M17.1614 21.8888C16.5628 22.1027 16.5579 22.7856 17.1614 22.9585C17.7649 23.1315 19.6847 22.8293 22.2091 24.4141C21.7387 22.3183 17.7598 21.674 17.1614 21.8888ZM15.8758 21.8888C15.2767 21.6741 11.2984 22.3183 10.8281 24.4131C13.352 22.8293 15.2718 23.1315 15.8758 22.9585C16.4793 22.7856 16.4753 22.1026 15.8758 21.8888ZM16.5464 27.2357C14.8776 27.1741 13.1959 26.3529 13.1402 26.7664C13.0333 27.5579 13.8038 31.8787 14.2955 32.0706C14.7871 32.2636 16.5374 31.814 16.7105 32.4992C17.4815 31.8569 18.7232 32.3073 19.0005 32.0497C19.279 31.7933 20.3686 27.193 19.8348 26.7675C19.5803 26.5617 18.0691 27.2913 16.5464 27.2357Z" fill="#F56600" stroke="#F56600" stroke-width="0.0851426"/>
<path d="M27.2142 9.05573C25.6731 7.85768 24.5408 4.43504 24.3479 3.83606C23.7056 3.70783 23.1071 4.43504 23.1071 4.43504C23.1071 4.43504 22.7015 3.79323 22.5941 3.27923C22.0165 3.36573 21.4389 3.83606 21.4389 3.83606C21.4389 3.83606 20.9259 2.63802 21.0114 1.95347C20.5621 1.97535 19.9794 2.63802 19.9794 2.63802C19.9794 2.63802 19.9834 1.59008 19.7697 1.01196C18.68 1.07607 18.144 1.56769 18.144 1.56769C18.144 1.56769 17.7602 1.07616 17.8029 0.5C17.1816 0.521371 15.7926 1.6553 15.7926 1.6553C15.7926 1.6553 15.4075 1.42014 15.5361 1.05573C14.9371 1.07607 14.3804 1.6553 14.3804 1.6553C14.3804 1.6553 13.9752 1.31226 14.1249 0.756535C13.2902 0.776884 11.7283 2.81009 11.7283 2.81009C11.7283 2.81009 11.1347 2.38557 11.3649 2.1688C10.8917 2.61767 9.16174 4.7344 9.16174 4.7344C9.16174 4.7344 8.41359 5.18429 8.22117 4.69259C7.64356 5.12009 7.1946 6.91669 7.1946 6.91669C7.1946 6.91669 6.61751 6.61741 6.33858 6.27539C6.06067 6.68059 6.33858 9.14027 6.33858 9.14027C6.33858 9.14027 4.90588 9.24713 4.6697 8.71277C4.56284 9.20541 4.71244 21.675 6.80882 22.2317C6.2531 12.0514 9.50367 12.0514 9.80295 11.5796C10.1022 11.1094 9.11891 9.14036 9.80295 8.62831C10.487 8.11626 11.0442 7.68672 12.4551 7.77331C13.8664 7.85879 15.8344 9.05734 15.8344 9.05734L20.6693 7.38753C20.6693 7.38753 23.7911 12.2214 25.5877 14.0189C27.3852 15.816 26.2728 23.0071 27.0006 23.1324C27.7283 23.2596 28.7553 10.2533 27.2142 9.05573Z" fill="#F56600" stroke="#F56600" stroke-width="0.0851426"/>
</g>
</g>
<defs>
<clipPath id="clip0_554_259">
<rect width="32" height="32" fill="white" transform="translate(0.330078 0.5)"/>
</clipPath>
<clipPath id="clip1_554_259">
<rect width="32" height="32" fill="white" transform="translate(0.330078 0.5)"/>
</clipPath>
</defs>
</svg>
