<svg width="19" height="31" viewBox="0 0 19 31" fill="none" xmlns="http://www.w3.org/2000/svg">
<path d="M18.1975 4.85061L16.46 2.2443C16.1026 1.70833 15.6185 1.26887 15.0505 0.964923C14.4826 0.660978 13.8484 0.50195 13.2042 0.501953L3.5592 0.501953C3.01896 0.501953 2.58092 0.939941 2.58092 1.48023V3.43674C2.58092 3.97697 3.01891 4.41502 3.5592 4.41502H5.51576V5.3933C5.51576 6.3932 5.12594 7.33393 4.41906 8.04145L3.84584 8.61467C3.46375 8.99676 3.46375 9.61586 3.84584 9.99801C4.03691 10.1891 4.28723 10.2846 4.53748 10.2846C4.78773 10.2846 5.03811 10.1891 5.22912 9.99801L5.80299 9.42479C6.64492 8.5818 7.18949 7.52166 7.38736 6.37158H7.47221C8.55279 6.37158 9.42871 7.2475 9.42871 8.32809V10.2846H9.1027C7.4844 10.2846 6.16791 11.6011 6.16791 13.2194V17.1324C6.16791 17.6719 5.72904 18.1107 5.18963 18.1107H3.23312C1.61482 18.1107 0.29834 19.4272 0.29834 21.0455V27.5673C0.29834 29.1856 1.61482 30.5021 3.23312 30.5021H14.9723C16.5906 30.5021 17.9071 29.1856 17.9071 27.5673V13.2193C17.9071 11.601 16.5906 10.2845 14.9723 10.2845H13.3418V8.32803C13.3418 7.24744 14.2178 6.37152 15.2983 6.37152H17.3835C17.5606 6.37162 17.7345 6.32354 17.8864 6.23245C18.0383 6.14135 18.1626 6.01067 18.2459 5.85437C18.3297 5.69843 18.3695 5.52261 18.3609 5.34578C18.3524 5.16894 18.2959 4.99777 18.1975 4.85061ZM10.081 22.0237H2.2549V21.0454C2.2549 20.506 2.69377 20.0671 3.23318 20.0671H5.18969C6.80799 20.0671 8.12447 18.7506 8.12447 17.1323V13.2193C8.12447 12.6798 8.56334 12.241 9.10275 12.241H10.081V22.0237H10.081ZM14.9723 12.2411C15.5117 12.2411 15.9505 12.68 15.9505 13.2194V22.0237H12.0375V12.2411H14.9723Z" fill="white" stroke="white" stroke-width="0.0585938"/>
</svg>
