<svg width="30" height="31" viewBox="0 0 30 31" fill="none" xmlns="http://www.w3.org/2000/svg">
<path d="M6.69264 30.468H11.5065V26.9897H4.07638V25.794H11.5066V24.199H4.07638V23.0033H11.5066V21.4086H4.07638V20.2129H11.5066V18.618H4.07638V17.4223H11.5066V15.8273H4.07638V14.6317H11.5066V13.0369H4.07638V11.8411H11.5066V10.2462H4.07638V9.0507H11.5066V7.45574H4.07638V6.26013H11.5066V4.66517H4.07638V3.46739H11.5066V0.537109H6.69264C2.99407 0.537109 -0.00488281 3.53592 -0.00488281 7.23511V23.7703C-0.00488281 27.4687 2.99407 30.468 6.69264 30.468ZM26.5955 23.2136C26.1402 23.2134 25.6895 23.3045 25.27 23.4815L22.4794 5.2708L21.462 13.7125L21.4307 13.9693L21.2425 15.535C21.2356 15.535 21.2283 15.5332 21.2215 15.5332C21.1338 15.5332 21.0487 15.5446 20.9645 15.5589C20.8724 15.5756 20.782 15.6006 20.6945 15.6338L20.9263 13.7131L22.1795 3.31427L22.1744 3.28414C21.7076 0.237445 20.9564 0.237986 20.4972 3.28631L17.4498 23.5024C17.0189 23.3127 16.5532 23.2147 16.0823 23.2147C14.2047 23.2147 12.682 24.737 12.682 26.6149C12.682 28.4927 14.2048 30.0148 16.0823 30.0148C17.1735 30.0148 18.1419 29.4987 18.7644 28.6997C19.213 28.1235 19.4827 27.4014 19.4827 26.6149C19.4827 26.448 19.4668 26.2863 19.4439 26.1262C19.4139 25.9183 19.3651 25.7137 19.2979 25.5147L20.0331 21.121L20.1718 19.9684L20.3794 18.2451C20.4184 18.2722 20.4613 18.292 20.5025 18.3148C20.6223 18.3821 20.7506 18.4356 20.8882 18.4674L20.7074 19.9684H22.4565L23.3974 25.4653C23.3201 25.6794 23.2649 25.9008 23.2326 26.1262C23.2099 26.2863 23.1939 26.448 23.1939 26.6149C23.1939 27.4316 23.4824 28.18 23.9622 28.7662C24.5858 29.528 25.5333 30.0148 26.5944 30.0148C28.4718 30.0148 29.9951 28.4921 29.9951 26.6144C29.9951 24.7369 28.473 23.2136 26.5955 23.2136ZM16.0833 28.6194C14.9761 28.6194 14.0787 27.7217 14.0787 26.6144C14.0787 25.5069 14.976 24.6092 16.0833 24.6092C16.5099 24.6092 16.9045 24.7454 17.2291 24.9728C17.618 25.2448 17.9024 25.6529 18.0213 26.1262C18.0603 26.2836 18.0882 26.4451 18.0882 26.615C18.0883 27.7217 17.1911 28.6194 16.0833 28.6194ZM22.0372 17.5121C21.87 17.7895 21.5688 17.9762 21.2215 17.9762C21.1281 17.9762 21.0394 17.9585 20.9536 17.9333C20.8231 17.8952 20.7023 17.8295 20.5995 17.7406C20.5474 17.696 20.5005 17.6459 20.4595 17.591C20.3395 17.4312 20.2662 17.235 20.2662 17.02C20.2662 16.7229 20.4049 16.4613 20.6166 16.2859C20.6926 16.223 20.7756 16.1706 20.869 16.1332C20.9645 16.0949 21.0696 16.0729 21.1783 16.0683C21.1936 16.0677 21.2074 16.0637 21.2221 16.0637C21.4536 16.0637 21.6628 16.1497 21.8283 16.2859C22.0403 16.4613 22.1784 16.7229 22.1784 17.02C22.1774 17.2005 22.1243 17.3677 22.0372 17.5121ZM26.5955 28.6194C25.4882 28.6194 24.5905 27.7217 24.5905 26.6144C24.5905 26.4451 24.6173 26.283 24.6581 26.1256C24.7816 25.6342 25.0817 25.2125 25.494 24.9416C25.8107 24.7323 26.1885 24.6092 26.5955 24.6092C27.703 24.6092 28.6005 25.5069 28.6005 26.6144C28.6005 27.7217 27.7025 28.6194 26.5955 28.6194Z" fill="white" stroke="white" stroke-width="0.0677209"/>
</svg>
