<svg width="27" height="31" viewBox="0 0 27 31" fill="none" xmlns="http://www.w3.org/2000/svg">
<path d="M26.4672 28.5277L26.4712 28.5227C23.6452 25.5737 21.0302 26.7097 18.7192 27.7157C17.0682 28.4367 15.5062 29.1177 13.7992 28.4647C12.9282 28.1347 12.3762 27.6557 12.1542 27.0457C11.9702 26.5437 12.0192 26.0007 12.1262 25.5577L13.3542 25.7777C13.6525 25.8298 13.9594 25.7618 14.2078 25.5885C14.4563 25.4152 14.6261 25.1507 14.6802 24.8527L16.1882 16.4057C18.1383 16.024 19.8766 14.9301 21.0645 13.3371C22.2524 11.7441 22.805 9.76606 22.6146 7.78805C22.4241 5.81005 21.5044 3.97371 20.0344 2.63661C18.5643 1.29951 16.6493 0.557365 14.6622 0.554688C13.4637 0.554361 12.2806 0.823865 11.2005 1.34321C10.1205 1.86255 9.17122 2.6184 8.42316 3.55469H0.660156V12.5547H7.73916C8.30785 13.5277 9.07436 14.3705 9.98916 15.0287L8.43316 23.7387C8.32316 24.3567 8.73916 24.9547 9.35816 25.0647L10.4392 25.2557C10.2892 25.9417 10.2382 26.7827 10.5382 27.6177C10.9322 28.7217 11.8252 29.5487 13.1852 30.0687C15.5502 30.9677 17.5972 30.0747 19.4032 29.2887C21.6282 28.3177 23.2322 27.6197 25.2342 29.7077L25.2402 29.7007C25.4003 29.8413 25.6073 29.9167 25.8203 29.9122C26.0333 29.9077 26.237 29.8235 26.391 29.6762C26.545 29.529 26.6383 29.3294 26.6524 29.1168C26.6665 28.9042 26.6004 28.694 26.4672 28.5277ZM14.6602 4.55469C16.8662 4.55469 18.6602 6.34869 18.6602 8.55469C18.6602 10.7597 16.8662 12.5547 14.6602 12.5547C12.4542 12.5547 10.6602 10.7597 10.6602 8.55469C10.6602 6.34869 12.4542 4.55469 14.6602 4.55469Z" fill="white" stroke="white"/>
</svg>
