<svg width="122" height="23" viewBox="0 0 122 23" fill="none" xmlns="http://www.w3.org/2000/svg">
<g clip-path="url(#clip0_554_1355)">
<path d="M20.1342 10.7107L16.2671 14.0477L17.4453 19.0381C17.5103 19.309 17.4935 19.5931 17.3972 19.8545C17.3008 20.1159 17.1291 20.3428 16.9038 20.5067C16.6785 20.6706 16.4097 20.764 16.1313 20.7752C15.8529 20.7864 15.5775 20.7148 15.3398 20.5695L10.9999 17.8986L6.65752 20.5695C6.41985 20.7139 6.14474 20.7848 5.86685 20.7733C5.58895 20.7617 5.3207 20.6681 5.09587 20.5044C4.87104 20.3407 4.69968 20.1141 4.60336 19.8531C4.50705 19.5922 4.4901 19.3086 4.55463 19.0381L5.73713 14.0477L1.86995 10.7107C1.65966 10.529 1.50757 10.2893 1.43268 10.0216C1.35779 9.75398 1.36342 9.47018 1.44887 9.20569C1.53431 8.9412 1.69578 8.70775 1.91311 8.53448C2.13044 8.36121 2.39401 8.25581 2.67088 8.23144L7.7412 7.82238L9.69713 3.08894C9.803 2.83097 9.98319 2.61031 10.2148 2.45501C10.4464 2.29972 10.7189 2.2168 10.9978 2.2168C11.2766 2.2168 11.5492 2.29972 11.7808 2.45501C12.0124 2.61031 12.1926 2.83097 12.2985 3.08894L14.2535 7.82238L19.3239 8.23144C19.6013 8.25491 19.8656 8.35972 20.0837 8.53274C20.3019 8.70577 20.4641 8.93932 20.55 9.20413C20.636 9.46894 20.6419 9.75323 20.5671 10.0214C20.4922 10.2895 20.3398 10.5296 20.1291 10.7116L20.1342 10.7107Z" fill="#F59309"/>
<path d="M45.1342 10.7107L41.2671 14.0477L42.4453 19.0381C42.5103 19.309 42.4935 19.5931 42.3972 19.8545C42.3008 20.1159 42.1291 20.3428 41.9038 20.5067C41.6785 20.6706 41.4097 20.764 41.1313 20.7752C40.8529 20.7864 40.5775 20.7148 40.3398 20.5695L35.9999 17.8986L31.6575 20.5695C31.4198 20.7139 31.1447 20.7848 30.8668 20.7733C30.589 20.7617 30.3207 20.6681 30.0959 20.5044C29.871 20.3407 29.6997 20.1141 29.6034 19.8531C29.5071 19.5922 29.4901 19.3086 29.5546 19.0381L30.7371 14.0477L26.8699 10.7107C26.6597 10.529 26.5076 10.2893 26.4327 10.0216C26.3578 9.75398 26.3634 9.47018 26.4489 9.20569C26.5343 8.9412 26.6958 8.70775 26.9131 8.53448C27.1304 8.36121 27.394 8.25581 27.6709 8.23144L32.7412 7.82238L34.6971 3.08894C34.803 2.83097 34.9832 2.61031 35.2148 2.45501C35.4464 2.29972 35.7189 2.2168 35.9978 2.2168C36.2766 2.2168 36.5492 2.29972 36.7808 2.45501C37.0124 2.61031 37.1926 2.83097 37.2985 3.08894L39.2535 7.82238L44.3239 8.23144C44.6013 8.25491 44.8656 8.35972 45.0837 8.53274C45.3019 8.70577 45.4641 8.93932 45.55 9.20413C45.636 9.46894 45.6419 9.75323 45.5671 10.0214C45.4922 10.2895 45.3398 10.5296 45.1291 10.7116L45.1342 10.7107Z" fill="#F59309"/>
<path d="M70.1342 10.7107L66.2671 14.0477L67.4453 19.0381C67.5103 19.309 67.4935 19.5931 67.3972 19.8545C67.3008 20.1159 67.1291 20.3428 66.9038 20.5067C66.6785 20.6706 66.4097 20.764 66.1313 20.7752C65.8529 20.7864 65.5775 20.7148 65.3398 20.5695L60.9999 17.8986L56.6575 20.5695C56.4198 20.7139 56.1447 20.7848 55.8668 20.7733C55.589 20.7617 55.3207 20.6681 55.0959 20.5044C54.871 20.3407 54.6997 20.1141 54.6034 19.8531C54.5071 19.5922 54.4901 19.3086 54.5546 19.0381L55.7371 14.0477L51.8699 10.7107C51.6597 10.529 51.5076 10.2893 51.4327 10.0216C51.3578 9.75398 51.3634 9.47018 51.4489 9.20569C51.5343 8.9412 51.6958 8.70775 51.9131 8.53448C52.1304 8.36121 52.394 8.25581 52.6709 8.23144L57.7412 7.82238L59.6971 3.08894C59.803 2.83097 59.9832 2.61031 60.2148 2.45501C60.4464 2.29972 60.7189 2.2168 60.9978 2.2168C61.2766 2.2168 61.5492 2.29972 61.7808 2.45501C62.0124 2.61031 62.1926 2.83097 62.2985 3.08894L64.2535 7.82238L69.3239 8.23144C69.6013 8.25491 69.8656 8.35972 70.0837 8.53274C70.3019 8.70577 70.4641 8.93932 70.55 9.20413C70.636 9.46894 70.6419 9.75323 70.5671 10.0214C70.4922 10.2895 70.3398 10.5296 70.1291 10.7116L70.1342 10.7107Z" fill="#F59309"/>
<path d="M95.1342 10.7107L91.2671 14.0477L92.4453 19.0381C92.5103 19.309 92.4935 19.5931 92.3972 19.8545C92.3008 20.1159 92.1291 20.3428 91.9038 20.5067C91.6785 20.6706 91.4097 20.764 91.1313 20.7752C90.8529 20.7864 90.5775 20.7148 90.3398 20.5695L85.9999 17.8986L81.6575 20.5695C81.4198 20.7139 81.1447 20.7848 80.8668 20.7733C80.589 20.7617 80.3207 20.6681 80.0959 20.5044C79.871 20.3407 79.6997 20.1141 79.6034 19.8531C79.5071 19.5922 79.4901 19.3086 79.5546 19.0381L80.7371 14.0477L76.8699 10.7107C76.6597 10.529 76.5076 10.2893 76.4327 10.0216C76.3578 9.75398 76.3634 9.47018 76.4489 9.20569C76.5343 8.9412 76.6958 8.70775 76.9131 8.53448C77.1304 8.36121 77.394 8.25581 77.6709 8.23144L82.7412 7.82238L84.6971 3.08894C84.803 2.83097 84.9832 2.61031 85.2148 2.45501C85.4464 2.29972 85.7189 2.2168 85.9978 2.2168C86.2766 2.2168 86.5492 2.29972 86.7808 2.45501C87.0124 2.61031 87.1926 2.83097 87.2985 3.08894L89.2535 7.82238L94.3239 8.23144C94.6013 8.25491 94.8656 8.35972 95.0837 8.53274C95.3019 8.70577 95.4641 8.93932 95.55 9.20413C95.636 9.46894 95.6419 9.75323 95.5671 10.0214C95.4922 10.2895 95.3398 10.5296 95.1291 10.7116L95.1342 10.7107Z" fill="#F59309"/>
<path d="M120.134 10.7107L116.267 14.0477L117.445 19.0381C117.51 19.309 117.494 19.5931 117.397 19.8545C117.301 20.1159 117.129 20.3428 116.904 20.5067C116.678 20.6706 116.41 20.764 116.131 20.7752C115.853 20.7864 115.578 20.7148 115.34 20.5695L111 17.8986L106.658 20.5695C106.42 20.7139 106.145 20.7848 105.867 20.7733C105.589 20.7617 105.321 20.6681 105.096 20.5044C104.871 20.3407 104.7 20.1141 104.603 19.8531C104.507 19.5922 104.49 19.3086 104.555 19.0381L105.737 14.0477L101.87 10.7107C101.66 10.529 101.508 10.2893 101.433 10.0216C101.358 9.75398 101.363 9.47018 101.449 9.20569C101.534 8.9412 101.696 8.70775 101.913 8.53448C102.13 8.36121 102.394 8.25581 102.671 8.23144L107.741 7.82238L109.697 3.08894C109.803 2.83097 109.983 2.61031 110.215 2.45501C110.446 2.29972 110.719 2.2168 110.998 2.2168C111.277 2.2168 111.549 2.29972 111.781 2.45501C112.012 2.61031 112.193 2.83097 112.298 3.08894L114.254 7.82238L119.324 8.23144C119.601 8.25491 119.866 8.35972 120.084 8.53274C120.302 8.70577 120.464 8.93932 120.55 9.20413C120.636 9.46894 120.642 9.75323 120.567 10.0214C120.492 10.2895 120.34 10.5296 120.129 10.7116L120.134 10.7107Z" fill="#F59309"/>
</g>
<defs>
<clipPath id="clip0_554_1355">
<rect width="122" height="22" fill="white" transform="translate(0 0.839844)"/>
</clipPath>
</defs>
</svg>
