<svg width="109" height="21" viewBox="0 0 109 21" fill="none" xmlns="http://www.w3.org/2000/svg">
<g clip-path="url(#clip0_554_654)">
<path d="M18.964 9.16317L15.4484 12.1968L16.5195 16.7335C16.5786 16.9798 16.5634 17.238 16.4757 17.4757C16.3881 17.7133 16.2321 17.9196 16.0272 18.0686C15.8224 18.2176 15.578 18.3025 15.325 18.3127C15.0719 18.3228 14.8215 18.2578 14.6054 18.1257L10.6601 15.6975L6.71245 18.1257C6.49638 18.257 6.24628 18.3214 5.99365 18.3109C5.74102 18.3004 5.49716 18.2153 5.29277 18.0665C5.08837 17.9176 4.93259 17.7117 4.84503 17.4744C4.75748 17.2372 4.74206 16.9794 4.80073 16.7335L5.87573 12.1968L2.36011 9.16317C2.16893 8.99795 2.03067 8.78006 1.96259 8.53672C1.89451 8.29339 1.89963 8.03539 1.97731 7.79494C2.05498 7.5545 2.20177 7.34227 2.39935 7.18475C2.59692 7.02724 2.83653 6.93142 3.08823 6.90927L7.69761 6.53739L9.47573 2.23427C9.57198 1.99975 9.73579 1.79915 9.94633 1.65797C10.1569 1.51679 10.4047 1.44141 10.6582 1.44141C10.9117 1.44141 11.1594 1.51679 11.37 1.65797C11.5805 1.79915 11.7443 1.99975 11.8406 2.23427L13.6179 6.53739L18.2273 6.90927C18.4795 6.9306 18.7198 7.02588 18.9181 7.18318C19.1164 7.34048 19.2639 7.55279 19.342 7.79353C19.4202 8.03426 19.4256 8.29271 19.3575 8.53649C19.2894 8.78027 19.1509 8.99854 18.9593 9.16395L18.964 9.16317Z" fill="#F59309"/>
<path d="M40.964 9.16317L37.4484 12.1968L38.5195 16.7335C38.5786 16.9798 38.5634 17.238 38.4757 17.4757C38.3881 17.7133 38.2321 17.9196 38.0272 18.0686C37.8224 18.2176 37.578 18.3025 37.325 18.3127C37.0719 18.3228 36.8215 18.2578 36.6054 18.1257L32.6601 15.6975L28.7125 18.1257C28.4964 18.257 28.2463 18.3214 27.9937 18.3109C27.741 18.3004 27.4972 18.2153 27.2928 18.0665C27.0884 17.9176 26.9326 17.7117 26.845 17.4744C26.7575 17.2372 26.7421 16.9794 26.8007 16.7335L27.8757 12.1968L24.3601 9.16317C24.1689 8.99795 24.0307 8.78006 23.9626 8.53672C23.8945 8.29339 23.8996 8.03539 23.9773 7.79494C24.055 7.5545 24.2018 7.34227 24.3993 7.18475C24.5969 7.02724 24.8365 6.93142 25.0882 6.90927L29.6976 6.53739L31.4757 2.23427C31.572 1.99975 31.7358 1.79915 31.9463 1.65797C32.1569 1.51679 32.4047 1.44141 32.6582 1.44141C32.9117 1.44141 33.1594 1.51679 33.37 1.65797C33.5805 1.79915 33.7443 1.99975 33.8406 2.23427L35.6179 6.53739L40.2273 6.90927C40.4795 6.9306 40.7198 7.02588 40.9181 7.18318C41.1164 7.34048 41.2639 7.55279 41.342 7.79353C41.4202 8.03426 41.4256 8.29271 41.3575 8.53649C41.2894 8.78027 41.1509 8.99854 40.9593 9.16395L40.964 9.16317Z" fill="#F59309"/>
<path d="M62.964 9.16317L59.4484 12.1968L60.5195 16.7335C60.5786 16.9798 60.5634 17.238 60.4757 17.4757C60.3881 17.7133 60.2321 17.9196 60.0272 18.0686C59.8224 18.2176 59.578 18.3025 59.325 18.3127C59.0719 18.3228 58.8215 18.2578 58.6054 18.1257L54.6601 15.6975L50.7125 18.1257C50.4964 18.257 50.2463 18.3214 49.9937 18.3109C49.741 18.3004 49.4972 18.2153 49.2928 18.0665C49.0884 17.9176 48.9326 17.7117 48.845 17.4744C48.7575 17.2372 48.7421 16.9794 48.8007 16.7335L49.8757 12.1968L46.3601 9.16317C46.1689 8.99795 46.0307 8.78006 45.9626 8.53672C45.8945 8.29339 45.8996 8.03539 45.9773 7.79494C46.055 7.5545 46.2018 7.34227 46.3993 7.18475C46.5969 7.02724 46.8365 6.93142 47.0882 6.90927L51.6976 6.53739L53.4757 2.23427C53.572 1.99975 53.7358 1.79915 53.9463 1.65797C54.1569 1.51679 54.4047 1.44141 54.6582 1.44141C54.9117 1.44141 55.1594 1.51679 55.37 1.65797C55.5805 1.79915 55.7443 1.99975 55.8406 2.23427L57.6179 6.53739L62.2273 6.90927C62.4795 6.9306 62.7198 7.02588 62.9181 7.18318C63.1164 7.34048 63.2639 7.55279 63.342 7.79353C63.4202 8.03426 63.4256 8.29271 63.3575 8.53649C63.2894 8.78027 63.1509 8.99854 62.9593 9.16395L62.964 9.16317Z" fill="#F59309"/>
<path d="M84.964 9.16317L81.4484 12.1968L82.5195 16.7335C82.5786 16.9798 82.5634 17.238 82.4757 17.4757C82.3881 17.7133 82.2321 17.9196 82.0272 18.0686C81.8224 18.2176 81.578 18.3025 81.325 18.3127C81.0719 18.3228 80.8215 18.2578 80.6054 18.1257L76.6601 15.6975L72.7125 18.1257C72.4964 18.257 72.2463 18.3214 71.9937 18.3109C71.741 18.3004 71.4972 18.2153 71.2928 18.0665C71.0884 17.9176 70.9326 17.7117 70.845 17.4744C70.7575 17.2372 70.7421 16.9794 70.8007 16.7335L71.8757 12.1968L68.3601 9.16317C68.1689 8.99795 68.0307 8.78006 67.9626 8.53672C67.8945 8.29339 67.8996 8.03539 67.9773 7.79494C68.055 7.5545 68.2018 7.34227 68.3993 7.18475C68.5969 7.02724 68.8365 6.93142 69.0882 6.90927L73.6976 6.53739L75.4757 2.23427C75.572 1.99975 75.7358 1.79915 75.9463 1.65797C76.1569 1.51679 76.4047 1.44141 76.6582 1.44141C76.9117 1.44141 77.1594 1.51679 77.37 1.65797C77.5805 1.79915 77.7443 1.99975 77.8406 2.23427L79.6179 6.53739L84.2273 6.90927C84.4795 6.9306 84.7198 7.02588 84.9181 7.18318C85.1164 7.34048 85.2639 7.55279 85.342 7.79353C85.4202 8.03426 85.4256 8.29271 85.3575 8.53649C85.2894 8.78027 85.1509 8.99854 84.9593 9.16395L84.964 9.16317Z" fill="#F59309"/>
<path d="M106.964 9.16317L103.448 12.1968L104.519 16.7335C104.579 16.9798 104.563 17.238 104.476 17.4757C104.388 17.7133 104.232 17.9196 104.027 18.0686C103.822 18.2176 103.578 18.3025 103.325 18.3127C103.072 18.3228 102.822 18.2578 102.605 18.1257L98.6601 15.6975L94.7125 18.1257C94.4964 18.257 94.2463 18.3214 93.9937 18.3109C93.741 18.3004 93.4972 18.2153 93.2928 18.0665C93.0884 17.9176 92.9326 17.7117 92.845 17.4744C92.7575 17.2372 92.7421 16.9794 92.8007 16.7335L93.8757 12.1968L90.3601 9.16317C90.1689 8.99795 90.0307 8.78006 89.9626 8.53672C89.8945 8.29339 89.8996 8.03539 89.9773 7.79494C90.055 7.5545 90.2018 7.34227 90.3993 7.18475C90.5969 7.02724 90.8365 6.93142 91.0882 6.90927L95.6976 6.53739L97.4757 2.23427C97.572 1.99975 97.7358 1.79915 97.9463 1.65797C98.1569 1.51679 98.4047 1.44141 98.6582 1.44141C98.9117 1.44141 99.1594 1.51679 99.37 1.65797C99.5805 1.79915 99.7443 1.99975 99.8406 2.23427L101.618 6.53739L106.227 6.90927C106.479 6.9306 106.72 7.02588 106.918 7.18318C107.116 7.34048 107.264 7.55279 107.342 7.79353C107.42 8.03426 107.426 8.29271 107.357 8.53649C107.289 8.78027 107.151 8.99854 106.959 9.16395L106.964 9.16317Z" fill="#F59309"/>
</g>
<defs>
<clipPath id="clip0_554_654">
<rect width="108" height="20" fill="white" transform="translate(0.660156 0.191406)"/>
</clipPath>
</defs>
</svg>
